<svg xmlns="http://www.w3.org/2000/svg" viewBox="0 0 100 120" role="img" aria-label="Aldosivi"><title>Aldosivi</title><defs><clipPath id="c-aldosivi"><path d="M16 4 H84 C86 4 88 6 88 8 V82 L50 117 L12 82 V8 C12 6 14 4 16 4 Z"/></clipPath></defs><g clip-path="url(#c-aldosivi)"><rect width="100" height="120" fill="#f5c842"/><path d="M0 0 H20 V120 H0 Z M40 0 H60 V120 H40 Z M80 0 H100 V120 H80 Z" fill="#1f9b4d"/></g><path d="M16 4 H84 C86 4 88 6 88 8 V82 L50 117 L12 82 V8 C12 6 14 4 16 4 Z" fill="none" stroke="rgba(255,255,255,.6)" stroke-width="4"/><path d="M16 4 H84 C86 4 88 6 88 8 V82 L50 117 L12 82 V8 C12 6 14 4 16 4 Z" fill="none" stroke="rgba(0,0,0,.35)" stroke-width="1.5"/></svg>
