<svg xmlns="http://www.w3.org/2000/svg" viewBox="0 0 100 120" role="img" aria-label="Argentinos Juniors"><title>Argentinos Juniors</title><defs><clipPath id="c-argentinos"><path d="M16 4 H84 C86 4 88 6 88 8 V82 L50 117 L12 82 V8 C12 6 14 4 16 4 Z"/></clipPath></defs><g clip-path="url(#c-argentinos)"><rect width="100" height="120" fill="#d61f34"/></g><path d="M16 4 H84 C86 4 88 6 88 8 V82 L50 117 L12 82 V8 C12 6 14 4 16 4 Z" fill="none" stroke="rgba(255,255,255,.6)" stroke-width="4"/><path d="M16 4 H84 C86 4 88 6 88 8 V82 L50 117 L12 82 V8 C12 6 14 4 16 4 Z" fill="none" stroke="rgba(0,0,0,.35)" stroke-width="1.5"/></svg>
