<svg xmlns="http://www.w3.org/2000/svg" viewBox="0 0 100 120" role="img" aria-label="Instituto"><title>Instituto</title><defs><clipPath id="c-instituto"><path d="M50 4 L94 17 V57 C94 84 76 104 50 116 C24 104 6 84 6 57 V17 Z"/></clipPath></defs><g clip-path="url(#c-instituto)"><rect width="100" height="120" fill="#d61f34"/><path d="M0 0 H20 V120 H0 Z M40 0 H60 V120 H40 Z M80 0 H100 V120 H80 Z" fill="#f2f4f8"/></g><path d="M50 4 L94 17 V57 C94 84 76 104 50 116 C24 104 6 84 6 57 V17 Z" fill="none" stroke="rgba(255,255,255,.6)" stroke-width="4"/><path d="M50 4 L94 17 V57 C94 84 76 104 50 116 C24 104 6 84 6 57 V17 Z" fill="none" stroke="rgba(0,0,0,.35)" stroke-width="1.5"/></svg>
